<svg viewBox="0 0 800 600" xmlns="http://www.w3.org/2000/svg" role="img" aria-label="Composición abstracta que representa iluminación para vehículos de defensa">
  <defs>
    <linearGradient id="def1bg" x1="0" y1="0" x2="1" y2="1">
      <stop offset="0%" stop-color="#16181C"/>
      <stop offset="100%" stop-color="#2B3138"/>
    </linearGradient>
  </defs>
  <rect width="800" height="600" fill="url(#def1bg)"/>
  <g stroke="#6E747D" stroke-width="1" opacity="0.55">
    <line x1="0" y1="80" x2="800" y2="80"/>
    <line x1="0" y1="160" x2="800" y2="160"/>
    <line x1="0" y1="240" x2="800" y2="240"/>
    <line x1="0" y1="320" x2="800" y2="320"/>
    <line x1="0" y1="400" x2="800" y2="400"/>
    <line x1="0" y1="480" x2="800" y2="480"/>
    <line x1="120" y1="0" x2="120" y2="600"/>
    <line x1="280" y1="0" x2="280" y2="600"/>
    <line x1="440" y1="0" x2="440" y2="600"/>
    <line x1="600" y1="0" x2="600" y2="600"/>
    <line x1="760" y1="0" x2="760" y2="600"/>
  </g>
  <rect x="280" y="240" width="240" height="120" fill="none" stroke="#2B3138" stroke-width="20"/>
  <rect x="280" y="240" width="240" height="120" fill="none" stroke="#D7DBE0" stroke-width="2" opacity="0.8"/>
  <rect x="60" y="60" width="10" height="10" fill="#E30613"/>
</svg>
